<?xml version="1.0" encoding="UTF-8"?>
<!DOCTYPE svg PUBLIC "-//W3C//DTD SVG 1.1//EN" "http://www.w3.org/Graphics/SVG/1.1/DTD/svg11.dtd">
<!-- Creator: CorelDRAW 2017 -->
<svg xmlns="http://www.w3.org/2000/svg" xml:space="preserve" width="62.4416mm" height="10.5832mm" version="1.1" style="shape-rendering:geometricPrecision; text-rendering:geometricPrecision; image-rendering:optimizeQuality; fill-rule:evenodd; clip-rule:evenodd"
viewBox="0 0 6244 1058"
 xmlns:xlink="http://www.w3.org/1999/xlink">
 <defs>
  <style type="text/css">
   <![CDATA[
    .fil1 {fill:#275565}
    .fil0 {fill:#57BEE6}
    .fil3 {fill:#275565;fill-rule:nonzero}
    .fil2 {fill:white;fill-rule:nonzero}
   ]]>
  </style>
 </defs>
 <g id="Camada_x0020_1">
  <metadata id="CorelCorpID_0Corel-Layer"/>
  <polygon class="fil0" points="-32,-44 6271,-44 6271,1134 -32,1134 "/>
  <rect class="fil1" x="83" y="87" width="6029" height="953"/>
  <rect class="fil0" x="2377" y="265" width="1312" height="617"/>
  <path class="fil2" d="M641 768l-138 -331 -78 0 -139 331 87 0 24 -65 128 0 26 65 89 0zm-137 -129l-83 0 42 -114 41 114zm373 129l0 -70 -128 0 0 -262 -81 0 0 331 209 0zm315 -46l-56 -52c-14,20 -39,34 -70,34 -55,0 -94,-41 -94,-102 0,-59 40,-102 96,-102 25,0 52,10 67,30l54 -54c-28,-32 -78,-49 -124,-49 -101,0 -180,68 -180,174 0,104 76,175 178,175 56,0 100,-21 129,-55zm115 46l0 -331 -81 0 0 331 81 0zm339 0l-87 -142c43,-13 69,-45 69,-89 0,-76 -63,-100 -127,-100l-126 0 0 331 79 0 0 -132 27 0 72 132 94 0zm-97 -230c0,34 -32,40 -58,40l-38 0 0 -77 43 0c24,0 53,6 53,37zm223 -102l-68 0 -34 127 59 0 43 -127zm280 32c-29,-27 -71,-41 -109,-41 -62,0 -128,30 -128,104 0,60 43,81 85,95 44,14 69,22 69,47 0,27 -22,36 -46,36 -26,0 -56,-15 -72,-35l-52 53c29,30 77,48 124,48 66,0 127,-34 127,-110 0,-66 -58,-85 -103,-100 -31,-10 -51,-17 -51,-39 0,-26 26,-33 46,-33 21,0 45,11 59,29l51 -54z"/>
  <path class="fil2" d="M4219 719l-56 -52c-14,20 -39,34 -70,34 -55,0 -94,-41 -94,-102 0,-59 40,-102 96,-102 25,0 52,10 67,30l54 -54c-28,-32 -78,-49 -124,-49 -101,0 -180,68 -180,174 0,104 76,175 178,175 56,0 100,-21 129,-55zm243 46l0 -70 -128 0 0 -262 -81 0 0 331 209 0zm351 0l-138 -331 -78 0 -139 331 87 0 24 -65 128 0 26 65 89 0zm-137 -129l-83 0 42 -114 41 114zm390 -170c-29,-27 -71,-41 -109,-41 -62,0 -128,30 -128,104 0,60 43,81 85,95 44,14 69,22 69,47 0,27 -22,36 -46,36 -26,0 -56,-15 -72,-35l-52 53c29,30 77,48 124,48 66,0 127,-34 127,-110 0,-66 -58,-85 -103,-100 -31,-10 -51,-17 -51,-39 0,-26 26,-33 46,-33 21,0 45,11 59,29l51 -54zm277 0c-29,-27 -71,-41 -109,-41 -62,0 -128,30 -128,104 0,60 43,81 85,95 44,14 69,22 69,47 0,27 -22,36 -46,36 -26,0 -56,-15 -72,-35l-52 53c29,30 77,48 124,48 66,0 127,-34 127,-110 0,-66 -58,-85 -103,-100 -31,-10 -51,-17 -51,-39 0,-26 26,-33 46,-33 21,0 45,11 59,29l51 -54zm282 299l0 -68 -154 0 0 -69 138 0 0 -64 -138 0 0 -62 146 0 0 -68 -223 0 0 331 231 0zm279 -299c-29,-27 -71,-41 -109,-41 -62,0 -128,30 -128,104 0,60 43,81 85,95 44,14 69,22 69,47 0,27 -22,36 -46,36 -26,0 -56,-15 -72,-35l-52 53c29,30 77,48 124,48 66,0 127,-34 127,-110 0,-66 -58,-85 -103,-100 -31,-10 -51,-17 -51,-39 0,-26 26,-33 46,-33 21,0 45,11 59,29l51 -54z"/>
  <path class="fil3" d="M2976 373l-107 0 -93 285 -2 0 -93 -285 -109 0 152 403 97 0 155 -403zm131 403l0 -403 -98 0 0 403 98 0zm388 -279c0,-92 -69,-124 -157,-124l-148 0 0 403 97 0 0 -152 48 0c84,0 160,-34 160,-127zm-97 1c0,38 -34,49 -70,49l-41 0 0 -95 43 0c35,0 68,7 68,46z"/>
 </g>
</svg>
